# xmcd
#
# Track frame offsets: 
#        182
#        10580
#        22757
#        35800
#        47990
#        60220
#        71310
#        82797
#        95260
#        108425
#        118877
#        130240
#        142945
#        154720
#        166070
#        180200
#        191460
#        200955
#        212985
#        223700
#        235852
#        251227
#        262362
#        273905
#
# Disc length: 3823 seconds
#
# Revision: 2
# Processed by: cddbd v1.5.2PL0 Copyright (c) Steve Scherf et al.
# Submitted via: ExactAudioCopy v1.1
#
DISCID=4e0eed18
DTITLE=Bob Wills - Bob Wills 24 Greatest Hits
DYEAR=1977
DGENRE=Country
TTITLE0=Bubbles In My Beer
TTITLE1=Spanish Fandango
TTITLE2=Still Water Runs The Deepest
TTITLE3=Cross My Heart I Love You
TTITLE4=Keeper Of My Heart
TTITLE5=Playboy Chimes
TTITLE6=I Ain't Got Nobody
TTITLE7=Boot Heel Drag
TTITLE8=Faded Love
TTITLE9=I Betcha My Heart I Love You
TTITLE10=I Laugh When I Think How I Cried Over You
TTITLE11=I'm Dotting Each "I" With A Teardrop
TTITLE12=End Of The Line
TTITLE13=I'm Tired Of Living This Lie
TTITLE14=Sittin' On Top Of The World
TTITLE15=Silver Bell
TTITLE16=Send Me A Red Rose
TTITLE17=I Won't Be Back Tonight
TTITLE18=B. Bowman Hop
TTITLE19=Bottle Baby Boogie
TTITLE20=St. Louis Blues
TTITLE21=So Long, I'll See You Later
TTITLE22=Waltzing In Old San Antone
TTITLE23=A Maiden's Prayer
EXTD=
EXTT0=
EXTT1=
EXTT2=
EXTT3=
EXTT4=
EXTT5=
EXTT6=
EXTT7=
EXTT8=
EXTT9=
EXTT10=
EXTT11=
EXTT12=
EXTT13=
EXTT14=
EXTT15=
EXTT16=
EXTT17=
EXTT18=
EXTT19=
EXTT20=
EXTT21=
EXTT22=
EXTT23=
PLAYORDER=
